<?xml version="1.0" encoding="UTF-8"?>
<svg id="Capa_2" data-name="Capa 2" xmlns="http://www.w3.org/2000/svg" viewBox="0 0 442 442">
  <defs>
    <style>
      .cls-1 {
        stroke: #000;
        stroke-width: 3px;
      }

      .cls-1, .cls-2 {
        stroke-miterlimit: 10;
      }

      .cls-1, .cls-3 {
        fill: #fff;
      }

      .cls-4 {
        fill: #69c9d0;
      }

      .cls-4, .cls-5, .cls-3 {
        stroke-width: 0px;
      }

      .cls-2 {
        fill: #000;
        stroke: #04858b;
        stroke-width: 22px;
      }

      .cls-5 {
        fill: #ee1d52;
      }
    </style>
  </defs>
  <g id="Capa_1-2" data-name="Capa 1">
    <g>
      <rect class="cls-2" x="11" y="11" width="420" height="420" rx="210" ry="210"/>
      <g id="Logo">
        <path class="cls-4" d="M108.86,297.24c0-38.28,30.88-69.46,69.04-69.98v-6.95c-3.03-.4-6.12-.63-9.26-.63-38.6,0-70,31.4-70,70,0,25.37,13.56,47.62,33.82,59.9-14.46-12.83-23.6-31.54-23.6-52.35Z"/>
        <path class="cls-4" d="M282.19,137.5v-7c-.65.02-1.3.04-1.95.04-9.04,0-17.4-2.09-24.22-5.62,6,6.38,15.32,11,26.17,12.58Z"/>
        <path class="cls-4" d="M178.86,327.24c16.57,0,30-13.43,30-30h0V108.09h0v-.85h30.83c-.68-2.16-1.06-4.4-1.06-6.7v-.85h-40v.85h0v189.15h0c0,16.57-13.43,30-30,30-4.39,0-8.55-.95-12.3-2.64,5.5,6.25,13.55,10.2,22.52,10.2Z"/>
        <path class="cls-5" d="M256.02,124.92c-4.52-4.8-7.16-10.59-7.16-16.83v-.85h-9.17c2.29,7.24,8.22,13.48,16.33,17.68Z"/>
        <path class="cls-5" d="M290.46,138.09c-2.83,0-5.6-.21-8.27-.59v33c-.65,0-1.3.04-1.95.04-14.88,0-28.99-2.43-41.6-6.77v125.92h0c0,38.6-31.4,70-70,70-13.23,0-25.62-3.69-36.18-10.1,12.36,10.97,28.61,17.65,46.4,17.65,38.6,0,70-31.4,70-70h0v-125.92c12.62,4.33,26.72,6.77,41.6,6.77.65,0,1.3-.03,1.95-.04v-40c-.65.02-1.3.04-1.95.04Z"/>
        <path class="cls-5" d="M168.64,259.68c-16.57,0-30,13.43-30,30,0,12.18,7.27,22.66,17.7,27.36-4.65-5.28-7.48-12.21-7.48-19.8,0-16.57,13.43-30,30-30,3.23,0,6.34.52,9.26,1.46v-40.83c-3.03-.4-6.12-.63-9.26-.63-.32,0-.64.02-.96.02v33.88c-2.92-.95-6.03-1.46-9.26-1.46Z"/>
        <path class="cls-3" d="M238.64,289.68h0v-125.92c12.62,4.33,26.72,6.77,41.6,6.77.65,0,1.3-.03,1.95-.04v-33c-10.85-1.58-20.17-6.2-26.17-12.58-8.11-4.2-14.03-10.44-16.33-17.68h-30.83v.85h0v189.15h0c0,16.57-13.43,30-30,30-8.98,0-17.03-3.95-22.52-10.2-10.43-4.7-17.7-15.18-17.7-27.36,0-16.57,13.43-30,30-30,3.23,0,6.34.52,9.26,1.46v-33.88c-38.15.52-69.04,31.7-69.04,69.98,0,20.81,9.14,39.51,23.6,52.35,10.57,6.4,22.95,10.1,36.18,10.1,38.6,0,70-31.4,70-70Z"/>
      </g>
      <rect class="cls-1" x="260.81" y="93.61" width="104.08" height="130.46" rx="12.65" ry="12.65"/>
      <line class="cls-1" x1="282.19" y1="116.08" x2="342.96" y2="116.08"/>
      <line class="cls-1" x1="282.19" y1="191.22" x2="342.96" y2="191.22"/>
      <line class="cls-1" x1="282.46" y1="131.21" x2="343.23" y2="131.21"/>
      <line class="cls-1" x1="282.19" y1="146.34" x2="342.96" y2="146.34"/>
      <line class="cls-1" x1="282.46" y1="161.21" x2="343.23" y2="161.21"/>
      <line class="cls-1" x1="282.19" y1="176.22" x2="342.96" y2="176.22"/>
      <line class="cls-1" x1="282.46" y1="206.22" x2="343.23" y2="206.22"/>
    </g>
  </g>
</svg>